<svg id="Layer_1" data-name="Layer 1" xmlns="http://www.w3.org/2000/svg" viewBox="0 0 811.64 412.38"><defs><style>.cls-1{fill:#b41218;}</style></defs><polygon class="cls-1" points="133.87 334.25 149.25 295.93 68.11 295.93 75.19 284.88 77.89 280.65 79.29 278.47 79.36 278.36 80.22 276.98 80.23 276.97 84.24 270.64 81.21 270.64 76.89 270.64 40.75 270.64 4.77 326.9 0 334.3 89.35 334.3 133.87 334.25"/><path class="cls-1" d="M479.49,609.49h-.16l.05-1.59L459.24,293.81H377L236.82,642.58l-53.29-.05H94.18L99,649.94l36,56.25h43.49l-4-6.34h0l-.86-1.36-.07-.11-1.4-2.19-2.7-4.22-6.81-10.63H287.93l63-160.19C368.81,475.28,387,426.79,402,385.25l3.36,61c.58,12.87,1.32,26.48,2.25,41l0,.28c.25,3.75.51,7.53.77,11.4l2.73,44.27H377.19l-17.76,46h55l7.09,92.06h55.82l5.81-14.4Z" transform="translate(-94.18 -293.81)"/><polygon class="cls-1" points="662.91 334.61 720.88 334.64 811.64 334.64 806.78 327.1 770.26 269.78 733.55 269.78 729.16 269.78 726.08 269.78 730.14 276.23 730.16 276.25 731.05 277.65 731.11 277.76 732.54 279.99 735.27 284.29 742.45 295.55 660.47 295.55 662.91 334.61"/><path class="cls-1" d="M815.06,641.34l-71.59,0-4.94-76.92,4.94,76.92-3.34-52-19-295.56H638.92L483.18,681.33h66.67l63-160.19c17.9-45.86,36.1-94.35,51.07-135.89l3.38,61c.57,12.87,1.32,26.48,2.26,41l0,.28h0c.23,3.75.47,7.53.77,11.4l13.12,182.36H836.07l-6.61,10.37L826.72,696l-1.43,2.22-.06.13-.89,1.39h0l-4.07,6.46h44.18L901,648.89l4.86-7.55Z" transform="translate(-94.18 -293.81)"/></svg>